<?xml version="1.0" encoding="UTF-8" standalone="no"?>
<!DOCTYPE svg PUBLIC "-//W3C//DTD SVG 1.1//EN" "http://www.w3.org/Graphics/SVG/1.1/DTD/svg11.dtd">
<svg width="100%" height="100%" viewBox="0 0 256 256" version="1.1" xmlns="http://www.w3.org/2000/svg" xmlns:xlink="http://www.w3.org/1999/xlink" xml:space="preserve" xmlns:serif="http://www.serif.com/" style="fill-rule:evenodd;clip-rule:evenodd;stroke-linejoin:round;stroke-miterlimit:2;">
    <g transform="matrix(1,0,0,1,-0.240602,-0.345865)">
        <path d="M128.075,236.074l-47.105,-144.97l-66.014,-0l113.119,144.97Z" style="fill:#fc6d26;fill-rule:nonzero;"/>
    </g>
    <g transform="matrix(1,0,0,1,-0.240602,-0.345865)">
        <path d="M14.956,91.104l-14.314,44.056c-1.302,4.007 0.133,8.426 3.542,10.903l123.891,90.012l-113.12,-144.97l0.001,-0.001Z" style="fill:#fca326;fill-rule:nonzero;"/>
    </g>
    <g transform="matrix(1,0,0,1,-0.240602,-0.345865)">
        <path d="M14.956,91.105l66.014,0l-28.369,-87.315c-1.46,-4.493 -7.816,-4.492 -9.275,-0l-28.37,87.315Z" style="fill:#e24329;fill-rule:nonzero;"/>
    </g>
    <g transform="matrix(1,0,0,1,-0.240602,-0.345865)">
        <path d="M128.075,236.074l47.104,-144.97l66.015,0l-113.12,144.97l0.001,0Z" style="fill:#fc6d26;fill-rule:nonzero;"/>
    </g>
    <g transform="matrix(1,0,0,1,-0.240602,-0.345865)">
        <path d="M241.194,91.105l-66.015,0l28.37,-87.315c1.46,-4.493 7.816,-4.492 9.275,0l28.37,87.315Z" style="fill:#e24329;fill-rule:nonzero;"/>
    </g>
    <g transform="matrix(1,0,0,1,-0.240602,-0.345865)">
        <path d="M128.075,236.075l47.104,-144.97l-94.209,-0l47.104,144.97l0.001,-0Z" style="fill:#e24329;fill-rule:nonzero;"/>
    </g>
    <g transform="matrix(1,0,0,1,-0.240602,-0.345865)">
        <path d="M241.194,91.104l14.314,44.056c1.302,4.008 -0.134,8.426 -3.543,10.903l-123.89,90.012l113.119,-144.97l0,-0.001Z" style="fill:#fca326;fill-rule:nonzero;"/>
    </g>
</svg>
