<?xml version="1.0" encoding="UTF-8" standalone="no"?>
<!DOCTYPE svg PUBLIC "-//W3C//DTD SVG 1.1//EN" "http://www.w3.org/Graphics/SVG/1.1/DTD/svg11.dtd">
<svg width="100%" height="100%" viewBox="0 0 195 195" version="1.1" xmlns="http://www.w3.org/2000/svg" xmlns:xlink="http://www.w3.org/1999/xlink" xml:space="preserve" xmlns:serif="http://www.serif.com/" style="fill-rule:evenodd;clip-rule:evenodd;stroke-linejoin:round;stroke-miterlimit:2;">
    <g transform="matrix(1,0,0,1,0.4,31.1)">
        <path d="M59.5,79.6c-8.5,-0 -15.4,-6.9 -15.4,-15.4c0,-8.5 6.9,-15.4 15.4,-15.4c2.3,-0 4.5,0.5 6.5,1.5c-1.1,-0.3 -2.1,-0.6 -3.3,-0.6c-6,-0 -10.9,4.9 -10.9,10.9c0,6 4.9,10.9 10.9,10.9c6,0 10.9,-4.9 10.9,-10.9c0,-1.5 -0.3,-2.9 -0.8,-4.2c1.3,2.3 2.1,4.9 2.1,7.8c0,8.5 -6.9,15.4 -15.4,15.4m89.8,-19c0,-0.8 -0.1,-1.5 -0.2,-2.3c0.8,1.8 1.2,3.8 1.2,5.9c0,8.5 -6.9,15.4 -15.4,15.4c-8.5,-0 -15.4,-6.9 -15.4,-15.4c0,-8.5 6.9,-15.4 15.4,-15.4c2,-0 4,0.4 5.8,1.1c-0.7,-0.1 -1.4,-0.2 -2.2,-0.2c-6,-0 -10.9,4.9 -10.9,10.9c0,6 4.9,10.9 10.9,10.9c6,-0 10.8,-4.9 10.8,-10.9m22.7,-26.3l-9.6,8c5.1,6.2 7.9,14 7.9,22c-0,19 -15.5,34.5 -34.5,34.5c-8.8,-0 -17.3,-3.4 -23.7,-9.5l-0,-14.2c4.1,8.5 12.8,14.5 22.9,14.5c14,-0 25.4,-11.4 25.4,-25.4c-0,-10.3 -6.2,-19.2 -15.1,-23.2c0.1,-0.1 0.2,-0.1 0.3,-0.2c5.2,-2.5 8.3,-4.7 8.3,-4.7l40.3,-33.1c-9.5,-2.8 -22.4,-3.8 -34,-2.2c-15.3,2.2 -28.2,7.7 -28.2,7.7c-12.3,-5.2 -19.8,-6.8 -34.9,-6.9c-15.1,0.1 -22.6,1.7 -34.9,6.9c-0,0 -13,-5.5 -28.2,-7.7c-11.6,-1.6 -24.4,-0.6 -34,2.2l40.3,33.1c-0,0 3.2,2.2 8.3,4.7c0.2,0.1 0.4,0.2 0.6,0.3c-8.8,4 -14.9,12.8 -14.9,23.1c-0,14 11.4,25.4 25.4,25.4c9.6,0 18,-5.4 22.3,-13.2l-0,-24.3l-0,0.1l-0,-0.5c-0,-4.2 3.4,-7.6 7.6,-7.6c4.2,0 7.6,3.4 7.6,7.6l-0,59l-14.7,-14.4l-2.9,-2.9c-4.8,4.6 -10.4,5.5 -19.1,5.5c-19.1,0 -34.5,-15.5 -34.5,-34.5c-0,-9.3 1.8,-15.3 6.8,-20.9l-9.6,-8c-6.7,7.8 -9.7,16.8 -9.7,28.9c-0,25.9 21.1,47 47,47c4,0 8.2,-0.1 12.4,-1c6.3,5.7 25.1,22.4 25.1,22.4l25.7,-23.1c4,1.1 8,1.7 12.2,1.7c25.9,0 47,-21.1 47,-47c-0.2,-11.1 -4,-21.7 -10.9,-30.1" style="fill:#002852;fill-rule:nonzero;"/>
    </g>
</svg>
