<?xml version="1.0" encoding="UTF-8" standalone="no"?>
<!DOCTYPE svg PUBLIC "-//W3C//DTD SVG 1.1//EN" "http://www.w3.org/Graphics/SVG/1.1/DTD/svg11.dtd">
<svg width="100%" height="100%" viewBox="0 0 60 60" version="1.1" xmlns="http://www.w3.org/2000/svg" xmlns:xlink="http://www.w3.org/1999/xlink" xml:space="preserve" xmlns:serif="http://www.serif.com/" style="fill-rule:evenodd;clip-rule:evenodd;stroke-linejoin:round;stroke-miterlimit:2;">
    <g id="path56827" transform="matrix(0.352778,0,0,-0.352778,115.192,176.943)">
        <path d="M-317.6,404.6l0.4,-14.6c0,0 3.6,2.6 7.7,2.6c4.1,0 8.7,-2.9 8.7,-2.9l36.6,-21l3.1,13.2l-39.7,22.8c0,0 -4.6,2.9 -8.7,2.9c-4,0 -8.1,-3 -8.1,-3" style="fill:#1a3258;fill-rule:nonzero;"/>
    </g>
    <g id="g56825">
    </g>
    <g transform="matrix(0.352778,0,0,-0.352778,115.192,175.163)">
        <g id="g56829">
            <path id="path56831" d="M-317.6,418.6l0.4,-14.6c0,0 3.6,2.6 7.7,2.6c4.1,0 8.7,-2.9 8.7,-2.9l40.5,-23.2l3.1,13.2l-43.6,25c0,0 -4.6,2.9 -8.7,2.9c-4,0 -8.1,-3 -8.1,-3" style="fill:#1a3258;fill-rule:nonzero;"/>
        </g>
    </g>
    <g transform="matrix(0.352778,0,0,-0.352778,115.192,173.383)">
        <g id="g56833">
            <path id="path56835" d="M-317.6,432.6l0.4,-14.6c0,0 3.6,2.7 7.7,2.7c4.1,0 8.7,-2.9 8.7,-2.9l44.5,-25.5l3.1,13.2l-47.5,27.3c0,0 -4.6,2.9 -8.7,2.9c-4.1,-0.1 -8.2,-3.1 -8.2,-3.1" style="fill:#1a3258;fill-rule:nonzero;"/>
        </g>
    </g>
    <g transform="matrix(0.352778,0,0,-0.352778,122.305,171.216)">
        <g id="g56837">
            <path id="path56839" d="M-261.5,449.7l4.1,-17.2l55.7,-31.9c0,0 4.4,-2.9 8.7,-2.9c4.3,0 8.2,3 8.2,3l-0.4,14.6c0,0 -3.5,-2.6 -7.7,-2.6c-4.2,0 -8.7,2.9 -8.7,2.9l-43.1,24.7l-3,11.1c0,0.5 0.4,0.7 0.6,0.7l7.3,2.2c1,0 1.5,-0.8 1.5,-1.5l0.4,-0.8c0.3,-0.1 1.4,0.4 1.4,0.4l0,4.4c0,2.9 -2.3,5.5 -5.5,5.5l-7.3,0c0,0 -1.1,2.5 -4.2,2.5l-13.8,0c-3.7,0 -4.5,-3.4 -4.5,-3.4l-9.6,-38.2l-39.3,22.6c0,0 -4.3,2.9 -8.7,2.9c-4.4,0 -8.1,-3 -8.1,-3l0.4,-14.6c0,0 3.3,2.6 7.7,2.6c4.4,0 8.7,-2.9 8.7,-2.9l48.4,-27.7l10.8,46.6" style="fill:#1a3258;fill-rule:nonzero;"/>
        </g>
    </g>
    <g transform="matrix(0.352778,0,0,-0.352778,122.786,173.264)">
        <g id="g56841">
            <path id="path56843" d="M-257.7,433.6l4.1,-17.3l50.5,-29c0,0 4.5,-2.9 8.7,-2.9c4.2,0 8.2,3 8.2,3l-0.4,14.6c0,0 -3.2,-2.6 -7.7,-2.6c-4.5,0 -8.7,2.9 -8.7,2.9l-54.7,31.3" style="fill:#1a3258;fill-rule:nonzero;"/>
        </g>
    </g>
    <g transform="matrix(0.352778,0,0,-0.352778,123.27,175.321)">
        <g id="g56845">
            <path id="path56847" d="M-253.9,417.3l4.1,-17.3l45.3,-26c0,0 4.5,-2.9 8.7,-2.9c4.2,0 8.2,3 8.2,3l-0.4,14.6c0,0 -3.2,-2.7 -7.7,-2.7c-4.5,0 -8.7,2.9 -8.7,2.9l-49.5,28.4" style="fill:#1a3258;fill-rule:nonzero;"/>
        </g>
    </g>
    <g transform="matrix(0.352778,0,0,-0.352778,123.754,177.38)">
        <g id="g56849">
            <path id="path56851" d="M-250.1,401.1l4.1,-17.3l40.2,-23c0,0 4.5,-2.9 8.7,-2.9c4.2,0 8.2,3 8.2,3l-0.4,14.6c0,0 -3.2,-2.6 -7.7,-2.6c-4.5,0 -8.7,2.9 -8.7,2.9l-44.4,25.3" style="fill:#1a3258;fill-rule:nonzero;"/>
        </g>
    </g>
</svg>
