<?xml version="1.0" encoding="UTF-8" standalone="no"?>
<!DOCTYPE svg PUBLIC "-//W3C//DTD SVG 1.1//EN" "http://www.w3.org/Graphics/SVG/1.1/DTD/svg11.dtd">
<svg width="100%" height="100%" viewBox="0 0 435 435" version="1.1" xmlns="http://www.w3.org/2000/svg" xmlns:xlink="http://www.w3.org/1999/xlink" xml:space="preserve" xmlns:serif="http://www.serif.com/" style="fill-rule:evenodd;clip-rule:evenodd;stroke-linejoin:round;stroke-miterlimit:2;">
    <g transform="matrix(1,0,0,1,0.891165,108.484)">
        <path d="M337.2,3.8l-35.5,92.4c-1.4,-21.1 -16.3,-30.5 -35.4,-36.2l-9.6,-2.9c-6.5,-2.1 -16.6,-5.4 -16.6,-13.8c0,-8 9.2,-12 16.1,-12c9.2,0 18,3.8 24.9,9.6l14.9,-29.1c-12.9,-7.2 -30.7,-11.8 -45.2,-11.8c-15.6,0 -28.8,5.6 -37.7,15.3l0,-11.5l-124.8,0l0,75.9c0,18.7 -1.3,39.2 -25.4,39.2c-24.1,0 -25.4,-20.5 -25.4,-39.2l0,-75.9l-37.5,0l0,81.1c0,18.5 0.8,36.9 15.1,50.9c12,11.9 31,16.1 47.8,16.1c16.8,-0 35.8,-4.2 47.8,-16.1c14.3,-14 15.1,-32.3 15.1,-50.9l0,-49.3l18.8,0l0,112.4l37.5,0l0,-112.4l20.4,0c-1,4 -1.5,8.3 -1.5,12.8c0,27.9 15.5,34 39,40.7c8,2.3 22.8,5.9 22.8,16.4c0,10.1 -9.4,14.5 -18.2,14.5c-12.8,0 -23.9,-6.7 -33.3,-14.9l-16.1,30.2c14.7,10.3 32.5,16.4 50.7,16.4c13.7,0 27.9,-3.6 39,-12l-3.1,8.2l39.8,0l9.9,-25l51.6,0l9.4,25l40,0l-54.4,-144.1l-40.9,0Zm4.6,90.5l15.5,-45.9l0.4,0l15.3,45.9l-31.2,0Z" style="fill:#f37421;fill-rule:nonzero;"/>
    </g>
</svg>
